HIERARCHY
ROOT Hips
{
	OFFSET 0.000000 0.000000 0.000000
	CHANNELS 6 Xposition Yposition Zposition Zrotation Yrotation Xrotation 
	JOINT LHipJoint
	{
		OFFSET 0.000000 0.000000 0.000000
		CHANNELS 3 Zrotation Yrotation Xrotation
		JOINT LeftUpLeg
		{
			OFFSET 1.363060 -1.794630 0.839290
			CHANNELS 3 Zrotation Yrotation Xrotation
			JOINT LeftLeg
			{
				OFFSET 2.448110 -6.726130 0.000000
				CHANNELS 3 Zrotation Yrotation Xrotation
				JOINT LeftFoot
				{
					OFFSET 2.562200 -7.039590 0.000000
					CHANNELS 3 Zrotation Yrotation Xrotation
					JOINT LeftToeBase
					{
						OFFSET 0.157640 -0.433110 2.322550
						CHANNELS 3 Zrotation Yrotation Xrotation
						End Site
						{
							OFFSET 0.000000 0.000000 0.000000
						}
					}
				}
			}
		}
	}
	JOINT RHipJoint
	{
		OFFSET 0.000000 0.000000 0.000000
		CHANNELS 3 Zrotation Yrotation Xrotation
		JOINT RightUpLeg
		{
			OFFSET -1.305520 -1.794630 0.839290
			CHANNELS 3 Zrotation Yrotation Xrotation
			JOINT RightLeg
			{
				OFFSET -2.542530 -6.985550 0.000000
				CHANNELS 3 Zrotation Yrotation Xrotation
				JOINT RightFoot
				{
					OFFSET -2.568260 -7.056230 0.000000
					CHANNELS 3 Zrotation Yrotation Xrotation
					JOINT RightToeBase
					{
						OFFSET -0.164730 -0.452590 2.363150
						CHANNELS 3 Zrotation Yrotation Xrotation
						End Site
						{
							OFFSET 0.000000 0.000000 0.000000
						}
					}
				}
			}
		}
	}
}
MOTION
Frames: 24
Frame Time: 0.008333
1.617174 16.585984 -0.428992 -130.019349 82.231816 -109.091793 -9.358276 -1.712455 -1.223873 -14.264671 2.350909 -49.376574 -1.736575 1.406944 36.164750 2.526338 10.591277 -13.236631 -0.764900 0.000000 -4.708901 11.026532 -2.785201 -4.258906 2.030976 -12.924788 -11.525586 0.855600 -3.240155 38.180197 -0.360176 8.080807 24.721317 4.474200 -0.000000 -93.790000
1.791929 16.552790 -0.484009 -130.288873 82.495086 -109.804409 -9.257515 -1.621659 -1.482546 -14.805153 2.632157 -48.864851 -1.720123 1.534298 37.984636 2.572725 10.672070 -14.449470 -1.066300 0.000000 -4.805700 11.276072 -2.606250 -4.362609 1.009386 -13.410442 -12.108243 0.666415 -3.374252 40.642559 -0.550831 7.793797 26.369935 4.606500 -0.000000 -91.118300
1.965462 16.526235 -0.542130 -130.610832 82.767954 -110.519057 -9.155162 -1.515143 -1.719620 -15.382909 2.927849 -48.225987 -1.734161 1.622183 39.425861 2.632523 10.746379 -15.823874 -1.406900 -0.000000 -5.098500 11.499007 -2.409651 -4.435861 0.064489 -13.755703 -12.806279 0.487571 -3.500580 43.111806 -0.764612 6.964955 27.823304 4.398600 0.000000 -87.650600
2.137924 16.506452 -0.603848 -130.989141 83.035858 -111.240532 -9.057207 -1.397403 -1.929877 -15.967613 3.219732 -47.464434 -1.769657 1.673857 40.494817 2.706803 10.840762 -17.262837 -1.769200 0.000000 -5.561700 11.690740 -2.203279 -4.481633 -0.778379 -13.967181 -13.605197 0.320515 -3.622715 45.556087 -0.994006 5.590805 28.971820 3.810600 -0.000000 -83.601400
2.309351 16.493534 -0.669618 -131.404668 83.280681 -111.951338 -8.971707 -1.274569 -2.108291 -16.523830 3.491402 -46.592473 -1.816760 1.693297 41.211589 2.793180 10.971349 -18.666673 -2.134700 0.000000 -6.147800 11.846031 -1.996420 -4.502680 -1.491090 -14.049130 -14.489149 0.164003 -3.743037 47.941279 -1.232408 3.715346 29.723058 2.852400 0.000000 -79.244100
2.479711 16.487517 -0.739519 -131.889239 83.491254 -112.684474 -8.903830 -1.152019 -2.253211 -17.030208 3.724347 -45.622368 -1.866698 1.684398 41.602304 2.887049 11.147364 -19.943067 -2.485000 0.000000 -6.787300 11.963591 -1.796016 -4.503482 -2.062797 -14.009714 -15.443035 0.015604 -3.863632 50.237015 -1.473493 1.441468 30.008943 1.595200 0.000000 -74.847899
2.648913 16.488463 -0.813332 -132.492606 83.658097 -113.490001 -8.858014 -1.034627 -2.364138 -17.471664 3.902938 -44.571461 -1.912119 1.651481 41.701645 2.981875 11.367474 -21.017177 -2.802700 -0.000000 -7.403001 12.043159 -1.608494 -4.487622 -2.488560 -13.856488 -16.453272 -0.127194 -3.985326 52.415627 -1.710818 -1.084602 29.796121 0.158200 -0.000001 -70.624499
2.816778 16.496386 -0.890650 -133.285414 83.773720 -114.440201 -8.837486 -0.926071 -2.441571 -17.840915 4.016457 -43.459677 -1.947673 1.599104 41.550731 3.070390 11.621222 -21.837408 -3.071700 -0.000000 -7.930000 12.085587 -1.439403 -4.457271 -2.770623 -13.598040 -17.507810 -0.265978 -4.107650 54.451817 -1.937540 -3.693235 29.087987 -1.313600 0.000000 -66.705400
2.983117 16.511201 -0.970812 -134.345294 83.832039 -115.611954 -8.843221 -0.829715 -2.489774 -18.137705 4.060730 -42.309650 -1.970582 1.532144 41.194857 3.145487 11.889526 -22.378400 -3.279100 0.000001 -8.333299 12.093175 -1.292027 -4.415831 -2.917095 -13.244550 -18.595886 -0.400646 -4.229619 56.324009 -2.146550 -6.215930 27.922442 -2.677400 -0.000001 -63.149400
3.147715 16.532752 -1.053015 -135.740269 83.827942 -117.074536 -8.874714 -0.746912 -2.513556 -18.367720 4.039408 -41.142766 -1.980609 1.455291 40.679004 3.200930 12.146525 -22.639800 -3.415400 0.000000 -8.613200 12.068945 -1.168283 -4.364899 -2.941007 -12.807367 -19.706381 -0.529507 -4.348886 58.011148 -2.331007 -8.507679 26.368513 -3.818300 0.000000 -59.970700
3.310396 16.560855 -1.136445 -137.502640 83.757294 -118.863594 -8.929917 -0.677191 -2.518597 -18.539907 3.964569 -39.977394 -1.979747 1.372932 40.044783 3.231972 12.363548 -22.642642 -3.476000 0.000000 -8.801300 12.016570 -1.068348 -4.305066 -2.858271 -12.298571 -20.826333 -0.649510 -4.462013 59.492951 -2.484838 -10.461272 24.517531 -4.664400 0.000000 -57.173999
3.471051 16.595183 -1.220194 -139.634890 83.618205 -120.987992 -9.005385 -0.618189 -2.511056 -18.667047 3.854134 -38.824371 -1.971686 1.288683 39.325952 3.235618 12.513125 -22.422923 -3.462300 -0.000000 -8.948400 11.940397 -0.990651 -4.236582 -2.689926 -11.732416 -21.940728 -0.756766 -4.565416 60.752116 -2.602660 -12.007744 22.468514 -5.188700 -0.000000 -54.701300
3.629655 16.635288 -1.303625 -142.074137 83.407028 -123.388351 -9.097285 -0.567878 -2.498727 -18.758880 3.729726 -37.694067 -1.960992 1.205874 38.551358 3.210560 12.571109 -22.027349 -3.381199 0.000000 -9.111900 11.844040 -0.931434 -4.161086 -2.453305 -11.121511 -23.034831 -0.846828 -4.655090 61.770909 -2.681288 -13.121957 20.332680 -5.410100 -0.000000 -52.599299
3.786315 16.680626 -1.386197 -144.740420 83.123161 -125.993050 -9.201970 -0.522354 -2.486487 -18.825267 3.612803 -36.586420 -1.952104 1.126496 37.738338 3.157010 12.521027 -21.501392 -3.243300 -0.000001 -9.348800 11.731026 -0.886831 -4.078724 -2.167769 -10.480850 -24.092913 -0.915944 -4.727349 62.535963 -2.719247 -13.810532 18.211935 -5.376600 0.000000 -50.852100
3.941262 16.730525 -1.467612 -147.525705 82.765525 -128.699678 -9.316086 -0.478530 -2.478866 -18.872116 3.521459 -35.499094 -1.948637 1.051757 36.896722 3.076519 12.355010 -20.885132 -3.061100 0.000000 -9.709900 11.604256 -0.852196 -3.991074 -1.847998 -9.824963 -25.101564 -0.961278 -4.779262 63.037368 -2.717848 -14.109841 16.200016 -5.155700 -0.000000 -49.474100
4.094874 16.784268 -1.547841 -150.320957 82.334213 -131.405938 -9.437208 -0.433085 -2.477153 -18.901424 3.467855 -34.425604 -1.952661 0.981994 36.029349 2.971653 12.074809 -20.206851 -2.846600 0.000000 -10.239000 11.466093 -0.823283 -3.898841 -1.505266 -9.168071 -26.050812 -0.981605 -4.808579 63.270500 -2.681034 -14.076943 14.371233 -4.818400 -0.000000 -48.448601
4.247608 16.841030 -1.627074 -153.023327 81.829252 -134.014801 -9.563542 -0.383405 -2.480256 -18.910364 3.456916 -33.358793 -1.964505 0.916935 35.134472 2.845430 11.689439 -19.480543 -2.609400 -0.000000 -10.972501 11.318696 -0.796680 -3.802806 -1.145033 -8.523336 -26.933910 -0.977329 -4.814143 63.237452 -2.615429 -13.784603 12.775632 -4.429001 -0.000000 -47.723600
4.399943 16.899986 -1.705660 -155.545922 81.251000 -136.440794 -9.693632 -0.328306 -2.485925 -18.892902 3.484994 -32.294165 -1.982724 0.856077 34.209912 2.701397 11.215022 -18.707301 -2.356500 -0.000000 -11.935600 11.163978 -0.769351 -3.704260 -0.768253 -7.901273 -27.751254 -0.950169 -4.796146 62.947052 -2.529712 -13.313812 11.437299 -4.037900 -0.000000 -47.236300
4.552344 16.960251 -1.784119 -157.828528 80.600166 -138.624685 -9.826753 -0.267261 -2.489626 -18.840581 3.541091 -31.228777 -2.004411 0.798789 33.253774 2.543242 10.671760 -17.877634 -2.092900 0.000000 -13.140700 11.003460 -0.739695 -3.603636 -0.372663 -7.309371 -28.506619 -0.902864 -4.755733 62.414532 -2.433560 -12.746771 10.351404 -3.678900 -0.000000 -46.891400
4.705219 17.021036 -1.862898 -159.838908 79.878955 -140.533107 -9.962609 -0.200831 -2.486249 -18.744540 3.607765 -30.163404 -2.025787 0.744727 32.267346 2.374583 10.080977 -16.976184 -1.821800 -0.000000 -14.581400 10.838080 -0.706975 -3.501259 0.045690 -6.750914 -29.207292 -0.838572 -4.694892 61.659527 -2.336570 -12.160233 9.490172 -3.371700 0.000000 -46.608500
4.858886 17.081616 -1.942458 -161.569753 79.090586 -142.156057 -10.101163 -0.130174 -2.470449 -18.597090 3.663905 -29.101924 -2.042781 0.693849 31.255765 2.199205 9.464145 -15.988054 -1.546900 0.000000 -16.228100 10.668260 -0.671332 -3.396835 0.490100 -6.225196 -29.862573 -0.760356 -4.616065 60.704003 -2.247286 -11.620141 8.808694 -3.124700 0.000000 -46.339200
5.013542 17.141382 -2.023134 -163.034761 78.239946 -143.503947 -10.242409 -0.056963 -2.437842 -18.393209 3.686827 -28.050166 -2.051686 0.646526 30.228002 2.020796 8.839949 -14.903038 -1.272000 0.000000 -18.027900 10.493818 -0.633324 -3.289849 0.962104 -5.726909 -30.482245 -0.670828 -4.521853 59.569709 -2.172386 -11.176730 8.252660 -2.939300 0.000001 -46.073500
5.169239 17.199785 -2.105060 -164.263035 77.333762 -144.602986 -10.385920 0.017170 -2.385032 -18.131597 3.654833 -27.015048 -2.049700 0.603349 29.196570 1.843032 8.223210 -13.720749 -1.002400 -0.000000 -19.904100 10.314472 -0.593966 -3.179208 1.459567 -5.247968 -31.073945 -0.571906 -4.414689 58.276231 -2.116247 -10.861229 7.765901 -2.811200 -0.000000 -45.830800
5.325986 17.256418 -2.188208 -165.293368 76.380840 -145.489289 -10.530697 0.090436 -2.311049 -17.815325 3.549886 -26.002767 -2.035378 0.565034 28.176002 1.669496 7.624399 -12.453068 -0.744200 -0.000000 -21.755100 10.129745 -0.554041 -3.064020 1.976735 -4.777501 -31.642947 -0.464718 -4.296623 56.838663 -2.080970 -10.685425 7.296979 -2.732500 0.000000 -45.650200
